<svg width="15" height="16" viewBox="0 0 15 16" fill="none" xmlns="http://www.w3.org/2000/svg">
<path d="M13.3333 2H11.7333V0.5C11.7333 0.225 11.4933 0 11.2 0H10.1333C9.84 0 9.6 0.225 9.6 0.5V2H5.33333V0.5C5.33333 0.225 5.09333 0 4.8 0H3.73333C3.44 0 3.2 0.225 3.2 0.5V2H1.6C0.716667 2 0 2.67188 0 3.5V14.5C0 15.3281 0.716667 16 1.6 16H13.3333C14.2167 16 14.9333 15.3281 14.9333 14.5V3.5C14.9333 2.67188 14.2167 2 13.3333 2ZM13.3333 5V7.5H10.1333V5H13.3333ZM5.86667 11V8.5H9.06667V11H5.86667ZM9.06667 12V14.5H5.86667V12H9.06667ZM4.8 11H1.6V8.5H4.8V11ZM5.86667 7.5V5H9.06667V7.5H5.86667ZM10.1333 8.5H13.3333V11H10.1333V8.5ZM4.8 5V7.5H1.6V5H4.8ZM1.6 14.3125V12H4.8V14.5H1.8C1.69 14.5 1.6 14.4156 1.6 14.3125ZM13.1333 14.5H10.1333V12H13.3333V14.3125C13.3333 14.4156 13.2433 14.5 13.1333 14.5Z" fill="#C5D7FF"/>
</svg>
