<svg width="16" height="16" viewBox="0 0 16 16" fill="none" xmlns="http://www.w3.org/2000/svg">
<path d="M1.69627 14.304L1.28027 13.872V8.00003V2.12803L1.69627 1.69603L2.12827 1.28003H8.00027H13.8723L14.3043 1.69603L14.7203 2.12803V8.00003V13.872L14.3043 14.304L13.8723 14.72H8.00027H2.12827L1.69627 14.304ZM13.7123 13.712C13.9843 13.456 14.0003 12.992 14.0003 8.00003C14.0003 3.00803 13.9843 2.54403 13.7123 2.28803C13.4563 2.01603 12.9923 2.00003 8.00027 2.00003C3.00827 2.00003 2.54427 2.01603 2.28827 2.28803C2.03227 2.54403 2.00027 3.02403 1.95227 7.74403C1.92027 10.992 1.96827 13.072 2.06427 13.344C2.16027 13.568 2.40027 13.84 2.59227 13.92C2.80027 14 5.24827 14.048 8.19227 14.032C12.9763 14 13.4563 13.968 13.7123 13.712Z" fill="#14589C"/>
<path d="M7.68016 10.08V8.32003H5.92016C4.27216 8.32003 4.16016 8.30403 4.16016 8.00003C4.16016 7.69603 4.27216 7.68003 5.92016 7.68003H7.68016V5.92003C7.68016 4.27203 7.69616 4.16003 8.00016 4.16003C8.30416 4.16003 8.32016 4.27203 8.32016 5.92003V7.68003H10.0802C11.7282 7.68003 11.8402 7.69603 11.8402 8.00003C11.8402 8.30403 11.7282 8.32003 10.0802 8.32003H8.32016V10.08C8.32016 11.728 8.30416 11.84 8.00016 11.84C7.69616 11.84 7.68016 11.728 7.68016 10.08Z" fill="#14589C"/>
</svg>
