<svg width="24" height="24" viewBox="0 0 24 24" fill="none" xmlns="http://www.w3.org/2000/svg">
<g clip-path="url(#clip0)">
<path d="M12 2.40039C6.70656 2.40039 2.4 6.70695 2.4 12.0004C2.4 17.2938 6.70656 21.6004 12 21.6004C17.2934 21.6004 21.6 17.2938 21.6 12.0004C21.6 6.70695 17.2934 2.40039 12 2.40039ZM20.2744 3.50102C20.1788 3.49955 20.085 3.52664 20.0049 3.57881C19.9249 3.63098 19.8622 3.70586 19.8249 3.79386C19.7877 3.88187 19.7775 3.97899 19.7958 4.07279C19.8141 4.16659 19.8599 4.2528 19.9275 4.32039C21.8533 6.30836 23.04 9.0125 23.04 12.0004C23.04 14.5316 22.1887 16.8582 20.7572 18.7204C20.7157 18.77 20.6847 18.8275 20.666 18.8894C20.6473 18.9513 20.6414 19.0163 20.6484 19.0806C20.6555 19.1449 20.6755 19.2071 20.7072 19.2634C20.7389 19.3198 20.7816 19.3692 20.8329 19.4086C20.8841 19.4481 20.9428 19.4767 21.0054 19.4929C21.068 19.5091 21.1332 19.5125 21.1972 19.5028C21.2611 19.4932 21.3224 19.4707 21.3775 19.4368C21.4325 19.4029 21.4802 19.3582 21.5175 19.3054C23.0726 17.2825 24 14.7473 24 12.0004C24 8.75788 22.7083 5.81119 20.6166 3.65195C20.5725 3.60518 20.5196 3.56772 20.4608 3.54179C20.402 3.51586 20.3386 3.502 20.2744 3.50102ZM3.71062 3.50195C3.58624 3.50763 3.46892 3.56141 3.38344 3.65195C1.29168 5.81119 0 8.75788 0 12.0004C0 14.7473 0.927434 17.2825 2.4825 19.3054C2.51984 19.3582 2.56747 19.4029 2.62251 19.4368C2.67756 19.4707 2.73889 19.4932 2.80283 19.5028C2.86677 19.5125 2.932 19.5091 2.9946 19.4929C3.0572 19.4767 3.11589 19.448 3.16714 19.4086C3.21839 19.3692 3.26114 19.3198 3.29283 19.2634C3.32453 19.2071 3.34451 19.1449 3.35157 19.0806C3.35864 19.0163 3.35265 18.9513 3.33396 18.8894C3.31527 18.8275 3.28427 18.77 3.24281 18.7204C1.81132 16.8582 0.96 14.5316 0.96 12.0004C0.96 9.0125 2.14666 6.30836 4.0725 4.32039C4.14079 4.25187 4.18679 4.16432 4.20447 4.0692C4.22214 3.97409 4.21067 3.87586 4.17154 3.78738C4.13242 3.6989 4.06748 3.6243 3.98523 3.57337C3.90298 3.52244 3.80727 3.49755 3.71062 3.50195ZM11.52 6.24039H12.48C12.745 6.24039 12.96 6.45543 12.96 6.72039V12.9604C12.96 13.2253 12.745 13.4404 12.48 13.4404H11.52C11.255 13.4404 11.04 13.2253 11.04 12.9604V6.72039C11.04 6.45543 11.255 6.24039 11.52 6.24039ZM11.52 15.3604H12.48C12.745 15.3604 12.96 15.5754 12.96 15.8404V16.8004C12.96 17.0653 12.745 17.2804 12.48 17.2804H11.52C11.255 17.2804 11.04 17.0653 11.04 16.8004V15.8404C11.04 15.5754 11.255 15.3604 11.52 15.3604Z" fill="white"/>
</g>
<defs>
<clipPath id="clip0">
<rect width="24" height="24" fill="white"/>
</clipPath>
</defs>
</svg>
