<svg width="24" height="24" viewBox="0 0 24 24" fill="none" xmlns="http://www.w3.org/2000/svg">
<g opacity="0.7" clip-path="url(#clip0)">
<path d="M17.8051 0.0455081C17.432 0.0811332 17.1133 0.332383 16.9914 0.686758C16.8676 1.04301 16.9633 1.43676 17.2351 1.69551L20.3401 4.80051H0.960138C0.930138 4.79863 0.900138 4.79863 0.870138 4.80051C0.339512 4.82488 -0.0692375 5.27488 -0.0448626 5.80551C-0.0204876 6.33613 0.429512 6.74488 0.960138 6.72051H20.3401L17.2351 9.82551C16.9839 10.0655 16.8808 10.4218 16.967 10.7593C17.0533 11.0949 17.3139 11.3593 17.6495 11.4493C17.9851 11.5393 18.3433 11.4399 18.5851 11.1905L24.0151 5.76051L18.5851 0.330508C18.3826 0.122383 18.0958 0.0173831 17.8051 0.0455081ZM6.00014 12.5255C5.78264 12.5536 5.58201 12.653 5.43014 12.8105L0.000137422 18.2405L5.43014 23.6705C5.67201 23.9199 6.03014 24.0193 6.36576 23.9293C6.70139 23.8393 6.96201 23.5749 7.04826 23.2393C7.13451 22.9018 7.03139 22.5455 6.78014 22.3055L3.67514 19.2005H23.0401C23.387 19.2061 23.7076 19.0243 23.882 18.7243C24.0583 18.4261 24.0583 18.0549 23.882 17.7568C23.7076 17.4568 23.387 17.2749 23.0401 17.2805H3.67514L6.78014 14.1755C7.08201 13.8905 7.16639 13.4424 6.98826 13.0674C6.81014 12.6924 6.41264 12.473 6.00014 12.5255Z" fill="#C4C5D6"/>
</g>
<defs>
<clipPath id="clip0">
<rect width="24" height="24" fill="white"/>
</clipPath>
</defs>
</svg>
