<svg width="16" height="16" viewBox="0 0 16 16" fill="none" xmlns="http://www.w3.org/2000/svg">
<g clip-path="url(#clip0)">
<path d="M7.4969 13.454C7.4969 11.9411 7.4969 10.4283 7.4969 8.85772C5.93274 8.85772 4.38587 8.85772 2.56267 8.85772C3.07179 9.31436 3.42619 9.62204 3.76891 9.94252C4.08891 10.2419 4.29195 10.5915 3.93131 10.9795C3.56699 11.3713 3.21595 11.1939 2.89834 10.8771C2.01418 9.99516 1.12938 9.11389 0.194824 8.18237C1.1729 7.19501 2.08682 6.23469 3.05546 5.33341C3.21178 5.18797 3.78731 5.19933 3.86235 5.32349C4.00059 5.55245 4.03723 6.01293 3.89083 6.20845C3.57803 6.62669 3.12171 6.9374 2.54475 7.45212C4.35755 7.45212 5.89995 7.45212 7.48155 7.45212C7.48155 5.9118 7.48155 4.38348 7.48155 2.855C7.42907 2.8126 7.37675 2.77021 7.32427 2.72781C6.97419 3.11181 6.67051 3.56141 6.25563 3.85309C6.03323 4.00957 5.61979 3.89421 5.29259 3.90157C5.32075 3.59453 5.23131 3.18092 5.39675 2.99836C6.25339 2.05292 7.17531 1.16652 8.11883 0.214844C9.12123 1.20316 10.1011 2.13228 11.0211 3.11708C11.1532 3.25868 11.1015 3.78812 10.9475 3.92172C10.7851 4.06236 10.3079 4.05773 10.1268 3.91517C9.70251 3.58141 9.37291 3.12717 9.00507 2.72157C8.95051 2.76429 8.89595 2.80701 8.84123 2.84989C8.84123 4.37773 8.84123 5.90557 8.84123 7.4766C10.3993 7.4766 11.9289 7.4766 13.4585 7.4766C13.5051 7.42636 13.5518 7.37597 13.5983 7.32573C13.2335 6.99757 12.8643 6.67436 12.5052 6.33996C12.1731 6.03068 11.9865 5.61981 12.4177 5.33469C12.6275 5.19613 13.1574 5.25996 13.3588 5.439C14.2937 6.26956 15.1644 7.1726 16.0886 8.07964C15.0849 9.11004 14.1419 10.1097 13.1492 11.0574C13.0249 11.1761 12.5004 11.1116 12.4063 10.9696C12.2727 10.7681 12.247 10.3171 12.3868 10.1475C12.7337 9.727 13.2007 9.40557 13.6195 9.04445C13.5727 8.98045 13.526 8.91661 13.4791 8.85261C11.9537 8.85261 10.4284 8.85261 8.85115 8.85261C8.85115 10.3851 8.85115 11.9182 8.85115 13.6059C9.28219 13.1864 9.60907 12.7686 10.0302 12.4971C10.2739 12.34 10.6697 12.4184 10.9969 12.3908C10.9705 12.7172 11.0703 13.1561 10.8964 13.3508C10.0495 14.3 9.12955 15.1838 8.17627 16.1507C7.17131 15.1392 6.21707 14.2166 5.32251 13.2393C5.18187 13.0856 5.2009 12.5752 5.3465 12.4283C5.49514 12.2784 5.99674 12.2483 6.15754 12.3851C6.5753 12.7403 6.89083 13.2156 7.24731 13.6432C7.33051 13.5801 7.4137 13.5171 7.4969 13.454Z" fill="#C4C5D6"/>
</g>
<defs>
<clipPath id="clip0">
<rect width="16" height="16" fill="white"/>
</clipPath>
</defs>
</svg>
