<svg width="16" height="16" viewBox="0 0 16 16" fill="none" xmlns="http://www.w3.org/2000/svg">
<path d="M14.8794 8.15943C14.8794 9.59831 14.8906 11.0374 14.8762 12.4762C14.8615 13.9538 13.9538 14.869 12.4761 14.8759C9.5983 14.8893 6.72038 14.8892 3.84262 14.8759C2.36326 14.869 1.45014 13.9549 1.44358 12.4764C1.43078 9.59863 1.4311 6.72071 1.44342 3.84295C1.44982 2.36391 2.36166 1.45095 3.8423 1.44423C6.72006 1.43111 9.59798 1.43127 12.4757 1.44423C13.9546 1.45095 14.8613 2.36407 14.8761 3.84279C14.8906 5.28151 14.8794 6.72055 14.8794 8.15943ZM2.0799 8.11831C2.0799 9.50295 2.07702 10.8874 2.0807 12.2721C2.08438 13.651 2.6527 14.2361 4.00422 14.2385C6.77334 14.2434 9.54246 14.2431 12.3116 14.2385C13.6316 14.2362 14.2346 13.6489 14.2375 12.3545C14.2437 9.55879 14.2436 6.76295 14.2377 3.96711C14.2349 2.70007 13.6372 2.08615 12.3941 2.08263C9.57174 2.07495 6.74934 2.07495 3.92694 2.08263C2.6807 2.08599 2.08758 2.69719 2.08134 3.96455C2.07478 5.34919 2.0799 6.73383 2.0799 8.11831Z" fill="#14589C"/>
<path d="M4.45264 8.29818C4.61584 8.1017 4.72848 7.96602 4.86096 7.8065C5.77904 8.65834 6.61215 9.4313 7.49279 10.2484C8.91231 8.5785 10.3037 6.9417 11.6949 5.30506C11.76 5.23995 11.76 5.20011 12 5.4401C12.24 5.6801 12.2293 5.6801 11.9646 5.94474C10.5291 7.68218 9.0632 9.39466 7.55184 11.1755C6.51184 10.21 5.52432 9.29322 4.45264 8.29818Z" fill="#14589C"/>
</svg>
