<svg width="16" height="16" viewBox="0 0 16 16" fill="none" xmlns="http://www.w3.org/2000/svg">
<path d="M14.2395 8.47823C14.2395 10.3969 14.2438 12.3157 14.2378 14.2344C14.2347 15.2027 13.9173 15.5169 12.9397 15.5184C9.74193 15.5227 6.544 15.5233 3.34624 15.5179C2.41632 15.5163 2.08369 15.1933 2.08241 14.2813C2.07665 10.4173 2.0768 6.55311 2.08224 2.68911C2.08352 1.77023 2.41216 1.45327 3.33536 1.44143C3.8416 1.43487 5.10209 1.48862 5.59969 1.42254C5.59969 1.19999 5.59969 1.11999 5.59969 0.95999C5.59969 0.95999 6.25073 0.817746 6.49713 0.811026C7.45585 0.784946 8.41553 0.795505 9.37489 0.801905C9.89345 0.805425 10.4598 0.670868 10.7562 1.32511C10.799 1.41967 11.0838 1.43086 11.2578 1.43502C11.8171 1.4483 12.377 1.43614 12.9365 1.4411C13.9147 1.44958 14.2346 1.75775 14.2378 2.72223C14.244 4.64079 14.2395 6.55951 14.2395 8.47823ZM4.03728 13.5552C6.83904 13.5552 9.54609 13.5552 12.2702 13.5552C12.2702 10.1437 12.2702 6.77727 12.2702 3.32559C11.7267 3.37039 10.9869 3.22798 10.7962 3.48814C10.3608 4.0819 9.85153 3.9907 9.31233 3.9971C8.38017 4.00798 7.44769 4.01055 6.51585 3.99231C6.28881 3.98782 5.94881 3.96287 5.85681 3.82063C5.35185 3.04047 4.6688 3.43983 4.03744 3.40831C4.03728 6.82639 4.03728 10.1728 4.03728 13.5552ZM5.52609 2.08079C4.74369 2.08079 4.02129 2.03998 3.30881 2.10606C3.09841 2.12558 2.74736 2.44575 2.74576 2.63039C2.7128 6.52143 2.71265 10.4128 2.74449 14.3038C2.74609 14.4969 3.09281 14.8523 3.28177 14.8544C6.53297 14.8885 9.78481 14.8886 13.0362 14.8544C13.2256 14.8525 13.5342 14.5184 13.5734 14.3005C13.6568 13.8357 13.5998 13.3456 13.5998 12.8657C13.5998 9.53423 13.5898 6.20255 13.6096 2.87103C13.613 2.30351 13.4758 2.03038 12.8528 2.07006C12.1677 2.11374 11.4774 2.07999 10.7486 2.07999C10.7486 2.30127 10.7509 2.72223 10.7685 2.72415C11.4885 2.80831 12.1939 2.72974 12.897 2.79006C12.897 6.62318 12.897 10.4168 12.897 14.1965C9.69889 14.1965 6.56401 14.1965 3.41137 14.1965C3.41137 10.3592 3.41137 6.56558 3.41137 2.71982C3.88465 2.71982 4.30705 2.7203 4.72929 2.71966C5.54689 2.71886 5.54689 2.71855 5.52609 2.08079ZM6.27361 3.30254C7.57665 3.30254 8.80945 3.30254 10.0134 3.30254C10.0134 2.65022 10.0134 2.05647 10.0134 1.48351C8.73345 1.48351 7.52001 1.48351 6.27361 1.48351C6.27361 2.10143 6.27361 2.67646 6.27361 3.30254Z" fill="#14589C"/>
<path d="M7.80414 11.2013C6.90814 10.3797 6.05742 9.61472 5.23022 8.82528C5.10606 8.70672 4.87917 8.48001 5.0267 8.29279C5.23022 8.03027 5.50622 8.25664 5.63806 8.3672C6.32574 8.94416 6.97758 9.56352 7.69646 10.2178C8.62078 8.87376 9.49262 7.60607 10.3646 6.33839C10.4854 6.16271 10.5808 5.95712 10.7371 5.82272C10.8515 5.72432 10.9592 5.52 11.2057 5.67376C11.4392 5.84001 11.3009 6.03567 11.2379 6.16111C11.0837 6.46799 10.8649 6.74272 10.6691 7.02832C9.72206 8.40928 8.77358 9.7896 7.80414 11.2013Z" fill="#14589C"/>
</svg>
