<svg width="24" height="24" viewBox="0 0 100 100" fill="none" xmlns="http://www.w3.org/2000/svg">
<path d="M50 6C25.74 6 6 25.74 6 50C6 74.26 25.74 94 50 94C74.26 94 94 74.26 94 50C94 25.74 74.26 6 50 6ZM67.42 64.58C68.2 65.36 68.2 66.64 67.42 67.42C67.02 67.8 66.52 68 66 68C65.48 68 64.98 67.8 64.58 67.42L50 52.84L35.42 67.42C35.02 67.8 34.52 68 34 68C33.48 68 32.98 67.8 32.58 67.42C31.8 66.64 31.8 65.36 32.58 64.58L47.16 50L32.58 35.42C31.8 34.64 31.8 33.36 32.58 32.58C33.36 31.8 34.64 31.8 35.42 32.58L50 47.16L64.58 32.58C65.36 31.8 66.64 31.8 67.42 32.58C68.2 33.36 68.2 34.64 67.42 35.42L52.84 50L67.42 64.58Z" fill="#EB5757"/>
</svg>
