<svg width="38" height="28" viewBox="0 0 38 28" fill="none" xmlns="http://www.w3.org/2000/svg">
<path d="M34.4375 0H3.5625C1.59496 0 0 1.56698 0 3.5V24.5C0 26.433 1.59496 28 3.5625 28H34.4375C36.405 28 38 26.433 38 24.5V3.5C38 1.56698 36.405 0 34.4375 0ZM33.9922 24.5H4.00781C3.88971 24.5 3.77644 24.4539 3.69293 24.3719C3.60942 24.2898 3.5625 24.1785 3.5625 24.0625V3.9375C3.5625 3.82147 3.60942 3.71019 3.69293 3.62814C3.77644 3.54609 3.88971 3.5 4.00781 3.5H33.9922C34.1103 3.5 34.2236 3.54609 34.3071 3.62814C34.3906 3.71019 34.4375 3.82147 34.4375 3.9375V24.0625C34.4375 24.1785 34.3906 24.2898 34.3071 24.3719C34.2236 24.4539 34.1103 24.5 33.9922 24.5ZM9.5 6.41667C7.86043 6.41667 6.53125 7.72253 6.53125 9.33333C6.53125 10.9441 7.86043 12.25 9.5 12.25C11.1396 12.25 12.4688 10.9441 12.4688 9.33333C12.4688 7.72253 11.1396 6.41667 9.5 6.41667ZM7.125 21H30.875V15.1667L24.3797 8.78536C24.032 8.44368 23.468 8.44368 23.1202 8.78536L14.25 17.5L11.3172 14.6187C10.9695 14.277 10.4055 14.277 10.0577 14.6187L7.125 17.5V21Z" fill="white"/>
</svg>
