<svg width="11" height="16" viewBox="0 0 11 16" fill="none" xmlns="http://www.w3.org/2000/svg">
<path d="M8.97394 0H2.00505C1.18061 0 0.511719 0.671875 0.511719 1.5V14.5C0.511719 15.3281 1.18061 16 2.00505 16H8.97394C9.79839 16 10.4673 15.3281 10.4673 14.5V1.5C10.4673 0.671875 9.79839 0 8.97394 0ZM5.4895 15C4.93883 15 4.49394 14.5531 4.49394 14C4.49394 13.4469 4.93883 13 5.4895 13C6.04016 13 6.48505 13.4469 6.48505 14C6.48505 14.5531 6.04016 15 5.4895 15ZM8.97394 11.625C8.97394 11.8313 8.80594 12 8.60061 12H2.37839C2.17305 12 2.00505 11.8313 2.00505 11.625V1.875C2.00505 1.66875 2.17305 1.5 2.37839 1.5H8.60061C8.80594 1.5 8.97394 1.66875 8.97394 1.875V11.625Z" fill="#C5D7FF"/>
</svg>
